<?xml version="1.0" encoding="utf-8"?>
<!-- Generator: Adobe Illustrator 15.0.2, SVG Export Plug-In . SVG Version: 6.00 Build 0)  -->
<!DOCTYPE svg PUBLIC "-//W3C//DTD SVG 1.1//EN" "http://www.w3.org/Graphics/SVG/1.1/DTD/svg11.dtd">
<svg version="1.1" xmlns="http://www.w3.org/2000/svg" xmlns:xlink="http://www.w3.org/1999/xlink" x="0px" y="0px" width="288px"
	 height="56px" viewBox="0 0 288 56" enable-background="new 0 0 288 56" xml:space="preserve">
<g id="Layer_1">
	<g>
		<g>
			<g opacity="0.3">
				<path d="M48.156,18.345c9.073,0,16.777,6.625,16.777,18.217c0,11.449-7.704,18.074-16.777,18.074
					c-9.072,0-16.777-6.625-16.777-18.074C31.378,24.97,39.083,18.345,48.156,18.345z"/>
			</g>
			<g>
				<g>
					<path fill="#F7C819" d="M48.156,17.345c9.073,0,16.777,6.625,16.777,18.217c0,11.449-7.704,18.074-16.777,18.074
						c-9.072,0-16.777-6.625-16.777-18.074C31.378,23.97,39.083,17.345,48.156,17.345z"/>
				</g>
			</g>
		</g>
		<g>
			<g opacity="0.3">
				<path d="M3.237,47.508C6.189,49.955,9.286,51.9,14.254,51.9c5.4,0,8.208-3.168,8.208-6.842c0-4.32-4.464-6.191-8.424-7.631
					c-5.257-1.873-11.017-3.961-11.017-9.866c0-5.04,3.96-9.217,11.161-9.217c3.672,0,7.345,1.512,9.865,3.601l-1.729,2.232
					c-2.304-1.728-4.752-3.096-8.28-3.096c-5.329,0-7.777,3.096-7.777,6.265c0,3.96,4.032,5.472,8.137,6.984
					c5.4,2.018,11.305,3.816,11.305,10.586c0,5.184-4.176,9.721-11.665,9.721c-5.113,0-9.577-2.16-12.673-4.752L3.237,47.508z"/>
			</g>
			<g>
				<path fill="#F7C819" d="M3.237,46.508C6.189,48.955,9.286,50.9,14.254,50.9c5.4,0,8.208-3.168,8.208-6.842
					c0-4.32-4.464-6.191-8.424-7.631c-5.257-1.873-11.017-3.961-11.017-9.866c0-5.04,3.96-9.217,11.161-9.217
					c3.672,0,7.345,1.512,9.865,3.601l-1.729,2.232c-2.304-1.728-4.752-3.096-8.28-3.096c-5.329,0-7.777,3.096-7.777,6.265
					c0,3.96,4.032,5.472,8.137,6.984c5.4,2.018,11.305,3.816,11.305,10.586c0,5.184-4.176,9.721-11.665,9.721
					c-5.113,0-9.577-2.16-12.673-4.752L3.237,46.508z"/>
			</g>
		</g>
		<g>
			<g opacity="0.3">
				<path d="M73.861,2h3.168v47.596c0,1.512,0.648,2.232,1.512,2.232c0.288,0,0.576,0,1.296-0.145l0.576,2.592
					c-0.648,0.217-1.296,0.361-2.304,0.361c-2.809,0-4.249-1.729-4.249-5.473V2z"/>
			</g>
			<g>
				<path fill="#F7C819" d="M73.861,1h3.168v47.596c0,1.512,0.648,2.232,1.512,2.232c0.288,0,0.576,0,1.296-0.145l0.576,2.592
					c-0.648,0.217-1.296,0.361-2.304,0.361c-2.809,0-4.249-1.729-4.249-5.473V1z"/>
			</g>
		</g>
		<g>
			<g opacity="0.3">
				<path d="M109.878,32.098c0.144-5.255-1.368-10.944-8.137-10.944c-4.681,0-8.713,2.304-11.017,4.032l-1.44-2.376
					c2.448-1.728,7.201-4.464,12.817-4.464c8.209,0,10.945,5.905,10.945,13.321v22.105h-2.664l-0.36-4.463h-0.144
					c-3.528,2.807-7.705,5.328-12.241,5.328c-5.473,0-10.081-2.953-10.081-9.506C87.556,37.498,94.541,33.826,109.878,32.098z
					 M98.141,51.9c3.96,0,7.489-1.945,11.737-5.617V34.547c-14.186,1.656-19.01,4.969-19.01,10.441
					C90.868,49.955,94.181,51.9,98.141,51.9z"/>
			</g>
			<g>
				<path fill="#F7C819" d="M109.878,31.098c0.144-5.255-1.368-10.944-8.137-10.944c-4.681,0-8.713,2.304-11.017,4.032l-1.44-2.376
					c2.448-1.728,7.201-4.464,12.817-4.464c8.209,0,10.945,5.905,10.945,13.321v22.105h-2.664l-0.36-4.463h-0.144
					c-3.528,2.807-7.705,5.328-12.241,5.328c-5.473,0-10.081-2.953-10.081-9.506C87.556,36.498,94.541,32.826,109.878,31.098z
					 M98.141,50.9c3.96,0,7.489-1.945,11.737-5.617V33.547c-14.186,1.656-19.01,4.969-19.01,10.441
					C90.868,48.955,94.181,50.9,98.141,50.9z"/>
			</g>
		</g>
		<g>
			<g opacity="0.3">
				<path d="M124.938,19.209h2.736l0.288,6.409h0.216c2.304-4.249,5.688-7.273,9.793-7.273c1.296,0,2.304,0.144,3.456,0.72
					l-0.72,2.88c-1.152-0.432-1.8-0.576-3.168-0.576c-3.096,0-6.769,2.376-9.433,8.857v23.545h-3.168V19.209z"/>
			</g>
			<g>
				<path fill="#F7C819" d="M124.938,18.209h2.736l0.288,6.409h0.216c2.304-4.249,5.688-7.273,9.793-7.273
					c1.296,0,2.304,0.144,3.456,0.72l-0.72,2.88c-1.152-0.432-1.8-0.576-3.168-0.576c-3.096,0-6.769,2.376-9.433,8.857v23.545
					h-3.168V18.209z"/>
			</g>
		</g>
	</g>
</g>
<g id="Layer_2">
	<g>
		<path fill="#666666" d="M148.625,18.208h2.736l0.288,5.329h0.216c3.528-3.528,7.129-6.193,11.881-6.193
			c7.128,0,10.441,4.32,10.441,13.25v22.178h-3.168V31.025c0-7.344-2.304-10.801-7.921-10.801c-4.104,0-7.057,2.16-11.305,6.48
			v26.066h-3.168V18.208z"/>
		<path fill="#666666" d="M197.715,17.344c8.353,0,15.553,6.625,15.553,18.218c0,11.449-7.2,18.074-15.553,18.074
			c-8.281,0-15.481-6.625-15.481-18.074C182.233,23.969,189.434,17.344,197.715,17.344z M197.715,50.827
			c6.985,0,12.241-6.192,12.241-15.265c0-9.145-5.256-15.409-12.241-15.409c-6.984,0-12.169,6.264-12.169,15.409
			C185.546,44.635,190.73,50.827,197.715,50.827z"/>
		<path fill="#666666" d="M234.852,17.344c4.176,0,6.985,1.584,10.441,4.249l-0.144-6.336V0.999h3.168v51.772h-2.736l-0.288-4.464
			h-0.216c-2.809,2.808-6.625,5.329-11.233,5.329c-8.713,0-14.33-6.409-14.33-18.074C219.514,24.401,226.643,17.344,234.852,17.344z
			 M234.275,50.827c3.816,0,7.201-2.016,10.873-5.688V24.617c-3.672-3.24-6.696-4.464-10.081-4.464
			c-6.913,0-12.169,6.696-12.169,15.409C222.898,44.707,226.931,50.827,234.275,50.827z"/>
		<path fill="#666666" d="M271.758,17.344c8.209,0,13.25,5.833,13.25,15.985c0,0.864,0,1.729-0.144,2.592h-24.915
			c0.144,8.713,5.257,14.978,13.033,14.978c3.745,0,6.697-1.224,9.289-3.096l1.296,2.448c-2.736,1.656-5.833,3.384-10.873,3.384
			c-8.856,0-15.985-6.769-15.985-18.074S264.054,17.344,271.758,17.344z M281.983,33.474c0-8.856-3.96-13.393-10.153-13.393
			c-5.905,0-11.161,5.112-11.881,13.393H281.983z"/>
	</g>
</g>
</svg>
