<svg xmlns="http://www.w3.org/2000/svg" width="286" height="56" xml:space="preserve"><path d="M148.458 18.207h2.736l.287 5.329h.217c3.527-3.528 7.129-6.192 11.881-6.192 7.129 0 10.441 4.32 10.441 13.25v22.178h-3.169V31.025c0-7.346-2.304-10.802-7.921-10.802-4.104 0-7.057 2.16-11.305 6.48v26.067h-3.168V18.207zM197.549 17.344c8.354 0 15.553 6.625 15.553 18.219 0 11.449-7.199 18.072-15.553 18.072-8.282 0-15.482-6.623-15.482-18.072C182.067 23.969 189.267 17.344 197.549 17.344zM197.549 50.826c6.984 0 12.24-6.191 12.24-15.264 0-9.146-5.256-15.41-12.24-15.41-6.985 0-12.169 6.264-12.169 15.41C185.379 44.635 190.564 50.826 197.549 50.826zM234.686 17.344c4.176 0 6.984 1.584 10.441 4.248l-.145-6.336V.998h3.168v51.773h-2.736l-.287-4.465h-.217c-2.809 2.809-6.625 5.328-11.232 5.328-8.713 0-14.33-6.408-14.33-18.072C219.348 24.4 226.477 17.344 234.686 17.344zM234.109 50.826c3.816 0 7.201-2.016 10.873-5.688V24.616c-3.672-3.24-6.697-4.464-10.08-4.464-6.914 0-12.17 6.695-12.17 15.41C222.732 44.707 226.766 50.826 234.109 50.826zM271.592 17.344c8.209 0 13.25 5.832 13.25 15.986 0 .863 0 1.729-.145 2.592h-24.914c.145 8.713 5.256 14.977 13.033 14.977 3.744 0 6.697-1.223 9.289-3.096l1.295 2.449c-2.736 1.654-5.832 3.383-10.873 3.383-8.855 0-15.984-6.768-15.984-18.072C256.543 24.256 263.887 17.344 271.592 17.344zM281.816 33.473c0-8.856-3.959-13.393-10.152-13.393-5.904 0-11.16 5.111-11.881 13.393H281.816z"/><path fill="#F7C819" d="M47.906,52.387c-9.142,0-15.527-6.918-15.527-16.824c0-9.99,6.385-16.968,15.527-16.968 s15.527,6.978,15.527,16.968C63.433,45.469,57.048,52.387,47.906,52.387"/><path d="M47.906 19.846c7.107 0 14.277 4.859 14.277 15.717 0 10.759-7.17 15.573-14.277 15.573s-14.277-4.814-14.277-15.573C33.629 24.705 40.799 19.846 47.906 19.846M47.906 17.346c-9.072 0-16.777 6.625-16.777 18.217 0 11.448 7.705 18.073 16.777 18.073 9.073 0 16.777-6.625 16.777-18.073C64.683 23.971 56.979 17.346 47.906 17.346M2.987 46.508C5.939 48.955 9.036 50.9 14.004 50.9c5.4 0 8.209-3.168 8.209-6.842 0-4.32-4.465-6.191-8.425-7.631-5.257-1.873-11.017-3.961-11.017-9.865 0-5.041 3.961-9.218 11.161-9.218 3.672 0 7.345 1.513 9.865 3.601l-1.729 2.232c-2.304-1.729-4.752-3.096-8.28-3.096-5.328 0-7.777 3.096-7.777 6.264 0 3.961 4.033 5.473 8.137 6.984 5.4 2.018 11.305 3.816 11.305 10.586 0 5.184-4.176 9.721-11.665 9.721-5.113 0-9.577-2.16-12.673-4.752L2.987 46.508zM73.611 1h3.169v47.596c0 1.512.647 2.232 1.512 2.232.287 0 .575 0 1.296-.145l.576 2.592c-.648.217-1.297.361-2.304.361-2.809 0-4.249-1.729-4.249-5.473V1zM109.627 31.098c.144-5.256-1.368-10.944-8.136-10.944-4.681 0-8.713 2.306-11.018 4.033l-1.439-2.377c2.448-1.728 7.2-4.464 12.816-4.464 8.209 0 10.945 5.904 10.945 13.32v22.105h-2.664l-.36-4.463h-.144c-3.528 2.807-7.704 5.328-12.241 5.328-5.473 0-10.081-2.953-10.081-9.506C87.306 36.498 94.291 32.826 109.627 31.098M97.891 50.9c3.96 0 7.489-1.945 11.737-5.617V33.547c-14.185 1.656-19.009 4.969-19.009 10.441C90.619 48.955 93.931 50.9 97.891 50.9M124.688 18.209h2.736l.288 6.41h.216c2.304-4.25 5.689-7.273 9.793-7.273 1.296 0 2.304.144 3.456.72l-.72 2.88c-1.152-.432-1.8-.576-3.168-.576-3.096 0-6.769 2.377-9.433 8.857v23.545h-3.168V18.209z"/></svg>