<?xml version="1.0" encoding="utf-8"?>
<!-- Generator: Adobe Illustrator 15.0.2, SVG Export Plug-In . SVG Version: 6.00 Build 0)  -->
<!DOCTYPE svg PUBLIC "-//W3C//DTD SVG 1.1 Basic//EN" "http://www.w3.org/Graphics/SVG/1.1/DTD/svg11-basic.dtd">
<svg version="1.1" baseProfile="basic" id="Layer_1"
	 xmlns="http://www.w3.org/2000/svg" xmlns:xlink="http://www.w3.org/1999/xlink" x="0px" y="0px" width="386px" height="56px"
	 viewBox="0 0 386 56" xml:space="preserve">
<g>
	<g>
		<g opacity="0.3">
			<path d="M48.156,18.345c9.073,0,16.777,6.625,16.777,18.217c0,11.449-7.704,18.074-16.777,18.074
				c-9.072,0-16.777-6.625-16.777-18.074C31.378,24.97,39.083,18.345,48.156,18.345z"/>
		</g>
		<g>
			<path fill="#F7C819" d="M48.156,17.345c9.073,0,16.777,6.625,16.777,18.217c0,11.449-7.704,18.074-16.777,18.074
				c-9.072,0-16.777-6.625-16.777-18.074C31.378,23.97,39.083,17.345,48.156,17.345z"/>
		</g>
	</g>
	<g>
		<g opacity="0.3">
			<path d="M3.237,47.508C6.189,49.955,9.286,51.9,14.254,51.9c5.4,0,8.208-3.168,8.208-6.842c0-4.32-4.464-6.191-8.424-7.631
				c-5.257-1.873-11.017-3.961-11.017-9.866c0-5.04,3.96-9.217,11.161-9.217c3.672,0,7.345,1.512,9.865,3.601l-1.729,2.232
				c-2.304-1.728-4.752-3.096-8.28-3.096c-5.329,0-7.777,3.096-7.777,6.265c0,3.96,4.032,5.472,8.137,6.984
				c5.4,2.018,11.305,3.816,11.305,10.586c0,5.184-4.176,9.721-11.665,9.721c-5.113,0-9.577-2.16-12.673-4.752L3.237,47.508z"/>
		</g>
		<g>
			<path fill="#F7C819" d="M3.237,46.508C6.189,48.955,9.286,50.9,14.254,50.9c5.4,0,8.208-3.168,8.208-6.842
				c0-4.32-4.464-6.191-8.424-7.631c-5.257-1.873-11.017-3.961-11.017-9.866c0-5.04,3.96-9.217,11.161-9.217
				c3.672,0,7.345,1.512,9.865,3.601l-1.729,2.232c-2.304-1.728-4.752-3.096-8.28-3.096c-5.329,0-7.777,3.096-7.777,6.265
				c0,3.96,4.032,5.472,8.137,6.984c5.4,2.018,11.305,3.816,11.305,10.586c0,5.184-4.176,9.721-11.665,9.721
				c-5.113,0-9.577-2.16-12.673-4.752L3.237,46.508z"/>
		</g>
	</g>
	<g>
		<g opacity="0.3">
			<path d="M73.861,2h3.168v47.596c0,1.512,0.648,2.232,1.512,2.232c0.288,0,0.576,0,1.296-0.145l0.576,2.592
				c-0.648,0.217-1.296,0.361-2.304,0.361c-2.809,0-4.249-1.729-4.249-5.473V2z"/>
		</g>
		<g>
			<path fill="#F7C819" d="M73.861,1h3.168v47.596c0,1.512,0.648,2.232,1.512,2.232c0.288,0,0.576,0,1.296-0.145l0.576,2.592
				c-0.648,0.217-1.296,0.361-2.304,0.361c-2.809,0-4.249-1.729-4.249-5.473V1z"/>
		</g>
	</g>
	<g>
		<g opacity="0.3">
			<path d="M109.878,32.098c0.144-5.255-1.368-10.944-8.137-10.944c-4.681,0-8.713,2.304-11.017,4.032l-1.44-2.376
				c2.448-1.728,7.201-4.464,12.817-4.464c8.209,0,10.945,5.905,10.945,13.321v22.105h-2.664l-0.36-4.463h-0.144
				c-3.528,2.807-7.705,5.328-12.241,5.328c-5.473,0-10.081-2.953-10.081-9.506C87.556,37.498,94.541,33.826,109.878,32.098z
				 M98.141,51.9c3.96,0,7.489-1.945,11.737-5.617V34.547c-14.186,1.656-19.01,4.969-19.01,10.441
				C90.868,49.955,94.181,51.9,98.141,51.9z"/>
		</g>
		<g>
			<path fill="#F7C819" d="M109.878,31.098c0.144-5.255-1.368-10.944-8.137-10.944c-4.681,0-8.713,2.304-11.017,4.032l-1.44-2.376
				c2.448-1.728,7.201-4.464,12.817-4.464c8.209,0,10.945,5.905,10.945,13.321v22.105h-2.664l-0.36-4.463h-0.144
				c-3.528,2.807-7.705,5.328-12.241,5.328c-5.473,0-10.081-2.953-10.081-9.506C87.556,36.498,94.541,32.826,109.878,31.098z
				 M98.141,50.9c3.96,0,7.489-1.945,11.737-5.617V33.547c-14.186,1.656-19.01,4.969-19.01,10.441
				C90.868,48.955,94.181,50.9,98.141,50.9z"/>
		</g>
	</g>
	<g>
		<g opacity="0.3">
			<path d="M124.938,19.209h2.736l0.288,6.409h0.216c2.304-4.249,5.688-7.273,9.793-7.273c1.296,0,2.304,0.144,3.456,0.72
				l-0.72,2.88c-1.152-0.432-1.8-0.576-3.168-0.576c-3.096,0-6.769,2.376-9.433,8.857v23.545h-3.168V19.209z"/>
		</g>
		<g>
			<path fill="#F7C819" d="M124.938,18.209h2.736l0.288,6.409h0.216c2.304-4.249,5.688-7.273,9.793-7.273
				c1.296,0,2.304,0.144,3.456,0.72l-0.72,2.88c-1.152-0.432-1.8-0.576-3.168-0.576c-3.096,0-6.769,2.376-9.433,8.857v23.545h-3.168
				V18.209z"/>
		</g>
	</g>
</g>
<g>
	<path fill="#666666" d="M148.748,18.209h2.736l0.288,5.329h0.216c3.528-3.528,7.129-6.193,11.881-6.193
		c7.128,0,10.441,4.32,10.441,13.249v22.178h-3.168V31.025c0-7.343-2.304-10.8-7.921-10.8c-4.104,0-7.057,2.16-11.305,6.48v26.065
		h-3.168V18.209z"/>
	<path fill="#666666" d="M199.206,17.345c8.209,0,13.25,5.833,13.25,15.985c0,0.865,0,1.729-0.144,2.592h-24.915
		c0.144,8.713,5.257,14.979,13.033,14.979c3.745,0,6.697-1.225,9.289-3.096l1.296,2.447c-2.736,1.656-5.833,3.385-10.873,3.385
		c-8.856,0-15.985-6.77-15.985-18.074S191.501,17.345,199.206,17.345z M209.431,33.475c0-8.856-3.96-13.393-10.153-13.393
		c-5.905,0-11.161,5.112-11.881,13.393H209.431z"/>
	<path fill="#666666" d="M222.755,20.946h-5.4v-2.448l5.473-0.288l0.432-10.009h2.736v10.009h10.009v2.736h-10.009v22.539
		c0,4.391,1.08,7.344,5.833,7.344c1.296,0,3.097-0.504,4.32-1.08l0.864,2.592c-2.016,0.721-4.176,1.297-5.616,1.297
		c-6.697,0-8.641-4.248-8.641-10.441V20.946z"/>
	<path fill="#666666" d="M242.058,18.209h3.457l6.192,22.394c0.864,3.168,1.656,6.121,2.376,9.217h0.288
		c0.792-3.096,1.656-6.049,2.521-9.217l6.265-22.394h3.816l6.265,22.394c0.864,3.168,1.728,6.121,2.592,9.217h0.288
		c0.792-3.096,1.656-6.049,2.448-9.217l6.121-22.394h3.24l-9.937,34.562h-4.176l-6.048-21.457c-1.008-3.312-1.656-6.48-2.665-9.865
		h-0.288c-0.792,3.384-1.656,6.697-2.736,10.009l-5.977,21.312h-3.816L242.058,18.209z"/>
	<path fill="#666666" d="M308.522,17.345c8.353,0,15.553,6.625,15.553,18.217c0,11.449-7.2,18.074-15.553,18.074
		c-8.281,0-15.481-6.625-15.481-18.074C293.041,23.97,300.242,17.345,308.522,17.345z M308.522,50.828
		c6.985,0,12.241-6.193,12.241-15.266c0-9.145-5.256-15.409-12.241-15.409c-6.984,0-12.169,6.264-12.169,15.409
		C296.354,44.635,301.538,50.828,308.522,50.828z"/>
	<path fill="#666666" d="M334.268,18.209h2.736l0.287,6.409h0.217c2.305-4.249,5.689-7.273,9.793-7.273
		c1.297,0,2.305,0.144,3.457,0.72l-0.721,2.88c-1.152-0.432-1.801-0.576-3.168-0.576c-3.096,0-6.77,2.376-9.434,8.857v23.545h-3.168
		V18.209z"/>
	<path fill="#666666" d="M358.078,1h3.168v38.162h0.143l17.066-20.953h3.672l-11.232,13.681L384,52.771h-3.529l-11.449-18.504
		l-7.775,9.072v9.432h-3.168V1z"/>
</g>
</svg>
